<svg width="25" height="20" viewBox="0 0 25 20" fill="none" xmlns="http://www.w3.org/2000/svg">
<path d="M22.1089 9.303C22.5118 8.22352 22.72 7.12468 22.72 6.00648C22.7201 5.3443 22.5917 4.68869 22.3422 4.07762C22.0928 3.46655 21.7273 2.91216 21.2669 2.44655C20.8066 1.98094 20.2604 1.61337 19.6602 1.36512C19.0599 1.11687 18.4175 0.992876 17.77 1.00032C16.7168 0.991966 15.6847 1.30266 14.8038 1.89325C13.9229 2.48383 13.2326 3.32788 12.82 4.31901C12.4074 3.32788 11.7172 2.48383 10.8363 1.89325C9.95543 1.30266 8.92331 0.991966 7.87004 1.00032C7.22261 0.992876 6.58017 1.11687 5.97991 1.36512C5.37966 1.61337 4.83353 1.98094 4.37315 2.44655C3.91276 2.91216 3.54727 3.46655 3.29784 4.07762C3.04841 4.68869 2.92 5.3443 2.92004 6.00648C2.92004 7.29624 3.19708 8.56025 3.73029 9.7985M21.4473 10.75C19.8793 13.6437 16.9118 16.3937 12.82 19C8.9646 16.5443 6.10736 13.9609 4.47849 11.25" stroke="#02173E" stroke-width="1.5" stroke-miterlimit="10" stroke-linecap="round" stroke-linejoin="round"/>
<path d="M1.69788 9.84372H7.11057L8.85661 7.86716L10.6026 10.3828L13.0471 6.24997L15.6661 12L17.063 9.30466H23.6979" stroke="#02173E" stroke-width="1.5" stroke-miterlimit="10" stroke-linecap="round" stroke-linejoin="round"/>
</svg>
